<?xml version="1.0" standalone="no"?>
<!DOCTYPE svg PUBLIC "-//W3C//DTD SVG 1.1//EN" "http://www.w3.org/Graphics/SVG/1.1/DTD/svg11.dtd">
<svg width="50" height="50" viewBox="0 0 50 50" fill="none" version="1.1" xmlns="http://www.w3.org/2000/svg"><path d="M121.3 684.9m-40.9 0a40.9 40.9 0 1 0 81.8 0 40.9 40.9 0 1 0-81.8 0Z" fill="#242424" /><path d="M266.5 860.1m-40.9 0a40.9 40.9 0 1 0 81.8 0 40.9 40.9 0 1 0-81.8 0Z" fill="#242424" /><path d="M512 40.1c-259.2 0-469.4 210.1-469.4 469.4 0 69 14.9 134.6 41.7 193.6l74.2-35.4c-21.7-48.3-33.7-101.8-33.7-158.2 0-213.8 173.3-387.2 387.2-387.2s387.2 173.3 387.2 387.2S725.8 896.6 512 896.6c-81.9 0-157.9-25.4-220.4-68.8L240.3 885c1.5 0.7 2.5 2.1 2.5 3.6s0.3 3.2-1.2 3.9c76.7 54.5 169.2 86.2 270.4 86.2 259.2 0 469.4-210.1 469.4-469.4S771.2 40.1 512 40.1z" fill="#242424" /><path d="M722.3 496.6c16 16 16 41.9 0 57.9L539.8 737c-16 16-41.9 16-57.9 0s-16-41.9 0-57.9l182.5-182.5c16-16 41.9-16 57.9 0z" fill="#242424" /><path d="M300.4 496.6c16-16 41.9-16 57.9 0l182.5 182.5c16 16 16 41.9 0 57.9s-41.9 16-57.9 0L300.4 554.5c-16-16-16-42 0-57.9z" fill="#242424" /><path d="M512 254.1c22.6 0 41 18.3 41 41V707c0 22.6-18.3 41-41 41-22.6 0-41-18.3-41-41V295c0-22.6 18.4-40.9 41-40.9z" fill="#242424" /></svg>